{"title":"007 Spectre 2015 NEW HD-TS XVID AC3-CPG","uid":12792919,"size":2439397445,"categoryP":"video","categoryS":"movies","magnet":"?xt=urn:btih:c4ce98c41c9b8c21684441e3fd8db831321243c2&amp;dn=007+Spectre+2015+NEW+HD-TS+XVID+AC3-CPG&amp;tr=udp%3A%2F%2Ftracker.leechers-paradise.org%3A6969&amp;tr=udp%3A%2F%2Fzer0day.ch%3A1337&amp;tr=udp%3A%2F%2Fopen.demonii.com%3A1337&amp;tr=udp%3A%2F%2Ftracker.coppersurfer.tk%3A6969&amp;tr=udp%3A%2F%2Fexodus.desync.com%3A6969","seeders":3,"leechers":1,"uploader":"makintos13","files":3,"time":1447939793,"description":"screens;\r\n \nhttp://imgmak.com/L8 \nhttp://imgmak.com/LL \nhttp://imgmak.com/LX \nhttp://imgmak.com/XC \nhttp://imgmak.com/XK\r\n\r\n:::\r\n\r\nSpectre (2015)\r\nA cryptic message from Bond's past sends him on a trail to uncover a sinister organization. While M battles political forces to keep the secret service alive, Bond peels back the layers of deceit to reveal the terrible truth behind SPECTRE.\r\n \nhttp://www.imdb.com/title/tt2379713/\r\n\r\nInfomation\r\n\r\nFormat : AVI\r\nFormat/Info : Audio Video Interleave\r\nFile size : 1.65 GiB\r\nDuration : 2h 28mn\r\nOverall bit rate : 1 593 Kbps\r\n\r\nVideo\r\nFormat : MPEG-4 Visual\r\nFormat profile : Advanced   \r\nFormat settings, BVOP : 2\r\nFormat settings, QPel : Yes\r\nFormat settings, GMC : No warppoints\r\nFormat settings, Matrix : Default (H.263)\r\nMuxing mode : Packed bitstream\r\nCodec ID : XVID\r\nCodec ID/Hint : XviD\r\nDuration : 2h 28mn\r\nBit rate : 1 457 Kbps\r\nWidth : 720 pixels\r\nHeight : 336 pixels\r\nDisplay aspect ratio : 2.143\r\nFrame rate : 23.976 fps\r\nColor space : YUV\r\nChroma subsampling : 4:2:0\r\nBit depth : 8 bits\r\nScan type : Progressive\r\nCompression mode : Lossy\r\nBits/(Pixel*Frame) : 0.251\r\nStream size : 1.51 GiB (91%)\r\nWriting library : XviD 73\r\n\r\nAudio\r\nFormat : AC-3\r\nFormat/Info : Audio Coding 3\r\nMode extension : CM (complete main)\r\nFormat settings, Endianness : Big\r\nCodec ID : 2000\r\nDuration : 2h 28mn\r\nBit rate mode : Constant\r\nBit rate : 128 Kbps\r\nChannel(s) : 2 channels\r\nChannel positions : Front: L R\r\nSampling rate : 44.1 KHz\r\nCompression mode : Lossy\r\nStream size : 136 MiB (8%)\r\nAlignment : Aligned on interleaves\r\n29","torrent":{"xt":"urn:btih:c4ce98c41c9b8c21684441e3fd8db831321243c2","amp;dn":"007+Spectre+2015+NEW+HD-TS+XVID+AC3-CPG","amp;tr":["udp%3A%2F%2Ftracker.leechers-paradise.org%3A6969","udp%3A%2F%2Fzer0day.ch%3A1337","udp%3A%2F%2Fopen.demonii.com%3A1337","udp%3A%2F%2Ftracker.coppersurfer.tk%3A6969","udp%3A%2F%2Fexodus.desync.com%3A6969"],"infoHash":"c4ce98c41c9b8c21684441e3fd8db831321243c2","infoHashBuffer":{"type":"Buffer","data":[196,206,152,196,28,155,140,33,104,68,65,227,253,141,184,49,50,18,67,194]},"announce":[],"urlList":[]}}